<svg width="32" height="32" viewBox="0 0 32 32" fill="none" xmlns="http://www.w3.org/2000/svg">
<path d="M32.0005 16.0002C32.0005 24.8369 24.8369 32.0005 16.0002 32.0005C7.16355 32.0005 0 24.8369 0 16.0002C0 7.16355 7.16355 0 16.0002 0C24.8369 0 32.0005 7.16355 32.0005 16.0002Z" fill="#10463E"/>
<path d="M31.5005 16.0002C31.5005 24.5608 24.5608 31.5005 16.0002 31.5005C7.4397 31.5005 0.5 24.5608 0.5 16.0002C0.5 7.4397 7.4397 0.5 16.0002 0.5C24.5608 0.5 31.5005 7.4397 31.5005 16.0002Z" stroke="#45A165" stroke-opacity="0.55"/>
<path d="M14.5799 18.0363H10.4399V14.4003H14.5799V10.2603H18.2159V14.4003H22.3919V18.0363H18.2159V22.2123H14.5799V18.0363Z" fill="#45A165" fill-opacity="0.55"/>
</svg>
